<svg width="25" height="25" viewBox="0 0 25 25" fill="none" xmlns="http://www.w3.org/2000/svg">
<path d="M17.3782 3.44812C17.6409 3.18547 17.9527 2.97713 18.2958 2.83499C18.639 2.69285 19.0068 2.61969 19.3782 2.61969C19.7497 2.61969 20.1175 2.69285 20.4606 2.83499C20.8038 2.97713 21.1156 3.18547 21.3782 3.44812C21.6409 3.71076 21.8492 4.02256 21.9914 4.36572C22.1335 4.70889 22.2067 5.07668 22.2067 5.44812C22.2067 5.81955 22.1335 6.18735 21.9914 6.53051C21.8492 6.87367 21.6409 7.18547 21.3782 7.44812L7.87823 20.9481L2.37823 22.4481L3.87823 16.9481L17.3782 3.44812Z" stroke="currentColor" stroke-width="2" stroke-linecap="round" stroke-linejoin="round"/>
</svg>
